<mxfile host="app.diagrams.net" modified="2025-02-26T23:58:25.337Z" agent="Mozilla/5.0 (Windows NT 10.0; Win64; x64) AppleWebKit/537.36 (KHTML, like Gecko) Chrome/133.0.0.0 Safari/537.36" etag="HkXY3jErAPG80-Wn82iw" version="24.4.13" type="github">
  <diagram name="第 1 页" id="BY05dzHAUt3siGKqpkrA">
    <mxGraphModel dx="1018" dy="604" grid="1" gridSize="10" guides="1" tooltips="1" connect="1" arrows="1" fold="1" page="1" pageScale="1" pageWidth="827" pageHeight="1169" math="0" shadow="0">
      <root>
        <mxCell id="0" />
        <mxCell id="1" parent="0" />
        <mxCell id="xbSAXooT0esd_zC8vx4k-1" value="前端UI层&lt;div&gt;Adroid\ios\pc\H5\小程序&lt;/div&gt;" style="rounded=1;whiteSpace=wrap;html=1;" vertex="1" parent="1">
          <mxGeometry x="140" y="114" width="180" height="80" as="geometry" />
        </mxCell>
        <mxCell id="xbSAXooT0esd_zC8vx4k-2" value="企业管理UI&lt;div&gt;EPR\WMS&lt;/div&gt;" style="rounded=1;whiteSpace=wrap;html=1;" vertex="1" parent="1">
          <mxGeometry x="380" y="114" width="180" height="80" as="geometry" />
        </mxCell>
        <mxCell id="xbSAXooT0esd_zC8vx4k-3" value="接入层&lt;div&gt;B2C\B2B\C2C&lt;/div&gt;" style="rounded=1;whiteSpace=wrap;html=1;" vertex="1" parent="1">
          <mxGeometry x="140" y="240" width="420" height="80" as="geometry" />
        </mxCell>
        <mxCell id="xbSAXooT0esd_zC8vx4k-4" value="" style="rounded=1;whiteSpace=wrap;html=1;" vertex="1" parent="1">
          <mxGeometry x="140" y="360" width="420" height="150" as="geometry" />
        </mxCell>
        <mxCell id="xbSAXooT0esd_zC8vx4k-5" value="平台产品层" style="text;html=1;align=center;verticalAlign=middle;whiteSpace=wrap;rounded=0;" vertex="1" parent="1">
          <mxGeometry x="310" y="365" width="80" height="30" as="geometry" />
        </mxCell>
        <mxCell id="xbSAXooT0esd_zC8vx4k-6" value="会员平台" style="rounded=1;whiteSpace=wrap;html=1;" vertex="1" parent="1">
          <mxGeometry x="160" y="400" width="80" height="40" as="geometry" />
        </mxCell>
        <mxCell id="xbSAXooT0esd_zC8vx4k-8" value="库存平台" style="rounded=1;whiteSpace=wrap;html=1;" vertex="1" parent="1">
          <mxGeometry x="260" y="400" width="80" height="40" as="geometry" />
        </mxCell>
        <mxCell id="xbSAXooT0esd_zC8vx4k-9" value="交易平台" style="rounded=1;whiteSpace=wrap;html=1;" vertex="1" parent="1">
          <mxGeometry x="360" y="400" width="80" height="40" as="geometry" />
        </mxCell>
        <mxCell id="xbSAXooT0esd_zC8vx4k-10" value="物流平台" style="rounded=1;whiteSpace=wrap;html=1;" vertex="1" parent="1">
          <mxGeometry x="460" y="400" width="80" height="40" as="geometry" />
        </mxCell>
        <mxCell id="xbSAXooT0esd_zC8vx4k-11" value="营销平台" style="rounded=1;whiteSpace=wrap;html=1;" vertex="1" parent="1">
          <mxGeometry x="160" y="450" width="80" height="40" as="geometry" />
        </mxCell>
        <mxCell id="xbSAXooT0esd_zC8vx4k-12" value="" style="rounded=1;whiteSpace=wrap;html=1;" vertex="1" parent="1">
          <mxGeometry x="140" y="550" width="420" height="100" as="geometry" />
        </mxCell>
        <mxCell id="xbSAXooT0esd_zC8vx4k-13" value="基础能力层" style="text;html=1;align=center;verticalAlign=middle;whiteSpace=wrap;rounded=0;" vertex="1" parent="1">
          <mxGeometry x="310" y="555" width="80" height="30" as="geometry" />
        </mxCell>
        <mxCell id="xbSAXooT0esd_zC8vx4k-14" value="会员" style="rounded=1;whiteSpace=wrap;html=1;" vertex="1" parent="1">
          <mxGeometry x="160" y="585" width="50" height="35" as="geometry" />
        </mxCell>
        <mxCell id="xbSAXooT0esd_zC8vx4k-15" value="商品" style="rounded=1;whiteSpace=wrap;html=1;" vertex="1" parent="1">
          <mxGeometry x="240" y="585" width="50" height="35" as="geometry" />
        </mxCell>
        <mxCell id="xbSAXooT0esd_zC8vx4k-16" value="类目" style="rounded=1;whiteSpace=wrap;html=1;" vertex="1" parent="1">
          <mxGeometry x="330" y="585" width="50" height="35" as="geometry" />
        </mxCell>
        <mxCell id="xbSAXooT0esd_zC8vx4k-17" value="促销" style="rounded=1;whiteSpace=wrap;html=1;" vertex="1" parent="1">
          <mxGeometry x="410" y="585" width="50" height="35" as="geometry" />
        </mxCell>
        <mxCell id="xbSAXooT0esd_zC8vx4k-19" value="支付" style="rounded=1;whiteSpace=wrap;html=1;" vertex="1" parent="1">
          <mxGeometry x="490" y="585" width="50" height="35" as="geometry" />
        </mxCell>
      </root>
    </mxGraphModel>
  </diagram>
</mxfile>
